<svg width="18" height="23" viewBox="0 0 18 23" fill="none" xmlns="http://www.w3.org/2000/svg">
<g id="cutlery 4">
<g id="Group">
<path id="Vector" d="M17.225 0.5V14.15H12.2V5.52501C12.2 4.1923 12.7294 2.91415 13.6717 1.97178C14.6141 1.02941 15.8922 0.5 17.225 0.5Z" stroke="#A3A9BA" stroke-linecap="round" stroke-linejoin="round"/>
<path id="Vector_2" d="M14.2999 14.075H17.2249V20.375C17.2249 20.7529 17.0748 21.1154 16.8076 21.3826C16.5403 21.6499 16.1779 21.8 15.7999 21.8H15.7249C15.347 21.8 14.9846 21.6499 14.7173 21.3826C14.4501 21.1154 14.2999 20.7529 14.2999 20.375V14.075Z" stroke="#A3A9BA" stroke-linecap="round" stroke-linejoin="round"/>
</g>
<g id="Group_2">
<path id="Vector_3" d="M4.69997 21.8C4.24247 21.8 3.80371 21.6182 3.48021 21.2947C3.15671 20.9712 2.97498 20.5325 2.97498 20.075L3.72498 10.7H5.74996L6.49996 20.075C6.50018 20.308 6.45322 20.5386 6.36188 20.7529C6.27054 20.9672 6.13671 21.1608 5.9685 21.322C5.80029 21.4832 5.60118 21.6087 5.38316 21.6908C5.16513 21.773 4.93273 21.8101 4.69997 21.8Z" stroke="#A3A9BA" stroke-linecap="round" stroke-linejoin="round"/>
<path id="Vector_4" d="M8.075 7.32498C7.95339 8.14309 7.5419 8.89028 6.91553 9.43042C6.28917 9.97056 5.48961 10.2677 4.66251 10.2677C3.83542 10.2677 3.03584 9.97056 2.40947 9.43042C1.7831 8.89028 1.37162 8.14309 1.25 7.32498H8.075Z" stroke="#A3A9BA" stroke-linecap="round" stroke-linejoin="round"/>
<path id="Vector_5" d="M1.25 1.09998V7.32499" stroke="#A3A9BA" stroke-linecap="round" stroke-linejoin="round"/>
<path id="Vector_6" d="M4.625 1.09998V7.17498" stroke="#A3A9BA" stroke-linecap="round" stroke-linejoin="round"/>
<path id="Vector_7" d="M8.07495 1.09998V7.32499" stroke="#A3A9BA" stroke-linecap="round" stroke-linejoin="round"/>
</g>
</g>
</svg>
